<?xml version="1.0" encoding="utf-8"?>
<!-- Generator: Adobe Illustrator 26.1.0, SVG Export Plug-In . SVG Version: 6.00 Build 0)  -->
<svg version="1.1" id="Layer_1" xmlns="http://www.w3.org/2000/svg" xmlns:xlink="http://www.w3.org/1999/xlink" x="0px" y="0px"
	 viewBox="0 0 177.34 61.31" style="enable-background:new 0 0 177.34 61.31;" xml:space="preserve">
<style type="text/css">
	.st0{fill:#FFFFFF;}
</style>
<g>
	<path class="st0" d="M27.25,10.68c-2.44-2.13-5.47-3.2-9.08-3.2c-3.24,0-5.84,0.99-7.79,2.95c-1.95,1.97-2.93,4.52-2.93,7.64
		c0,3.16,0.98,5.71,2.95,7.67c1.97,1.95,4.52,2.93,7.67,2.93c3.81,0,7.06-1.27,9.74-3.81l4.25,5.25c-3.84,3.61-8.65,5.42-14.41,5.42
		c-3.45,0-6.51-0.71-9.18-2.12c-2.67-1.42-4.75-3.44-6.24-6.08C0.74,24.69,0,21.64,0,18.17c0-2.41,0.43-4.68,1.29-6.81
		s2.08-3.99,3.64-5.58c1.56-1.59,3.51-2.85,5.85-3.77s4.9-1.39,7.68-1.39c5.14,0,9.46,1.54,12.94,4.62L27.25,10.68z"/>
	<path class="st0" d="M53.3,1.32c3.89,0,7.04,1.04,9.45,3.11c2.41,2.08,3.61,4.84,3.61,8.29c0,2.3-0.6,4.32-1.79,6.08
		c-1.2,1.76-2.89,3.09-5.07,4l8.16,12.01h-9.11L52.4,24.82h-6.74v10.01h-7.5V1.32H53.3z M45.66,18.17h7.11
		c1.81,0,3.25-0.46,4.32-1.37c1.08-0.91,1.61-2.16,1.61-3.74c0-1.6-0.5-2.84-1.51-3.72c-1.01-0.89-2.42-1.33-4.23-1.33h-7.3
		L45.66,18.17L45.66,18.17z"/>
	<path class="st0" d="M98.56,1.32v6.74H80.9v6.3h15.75v6.57H80.9v7.15h18.51v6.74H73.5V1.32H98.56z"/>
	<path class="st0" d="M118.36,1.32c5.54,0,9.94,1.55,13.22,4.64s4.92,7.13,4.92,12.11c0,2.41-0.44,4.65-1.32,6.72
		c-0.88,2.07-2.1,3.84-3.68,5.31c-1.57,1.47-3.5,2.63-5.8,3.47c-2.3,0.84-4.8,1.26-7.52,1.26h-12.19V1.32H118.36z M113.45,28.09
		h4.81c3.14,0,5.72-0.91,7.73-2.72c2.01-1.82,3.02-4.24,3.02-7.29c0-3.27-0.92-5.76-2.77-7.46c-1.85-1.7-4.53-2.55-8.05-2.55h-4.74
		L113.45,28.09L113.45,28.09z"/>
	<path class="st0" d="M159.53,0.62c2.61,0,5.02,0.44,7.24,1.33c2.22,0.89,4.1,2.1,5.64,3.65c1.54,1.55,2.74,3.4,3.61,5.54
		s1.31,4.46,1.31,6.94c0,2.38-0.44,4.63-1.31,6.76c-0.87,2.13-2.08,3.99-3.61,5.57c-1.54,1.58-3.43,2.83-5.66,3.75
		c-2.24,0.92-4.64,1.38-7.22,1.38c-2.55,0-4.94-0.45-7.15-1.34c-2.22-0.89-4.09-2.12-5.64-3.66c-1.55-1.55-2.76-3.4-3.64-5.54
		c-0.88-2.15-1.32-4.45-1.32-6.91c0-3.19,0.75-6.12,2.25-8.78c1.5-2.66,3.61-4.78,6.34-6.34C153.09,1.4,156.15,0.62,159.53,0.62z
		 M159.53,7.33c-2.08,0-3.92,0.49-5.51,1.45c-1.59,0.97-2.78,2.26-3.59,3.87c-0.81,1.61-1.21,3.42-1.21,5.42
		c0,3.11,0.94,5.68,2.81,7.7c1.87,2.03,4.37,3.04,7.5,3.04c2.13,0,3.99-0.49,5.58-1.48c1.59-0.98,2.77-2.28,3.55-3.88
		c0.78-1.6,1.17-3.4,1.17-5.38c0-3.16-0.93-5.74-2.78-7.74C165.2,8.33,162.69,7.33,159.53,7.33z"/>
	<path class="st0" d="M14.57,42.76l7.66,17.57h-1.44l-1.9-4.42H8.32l-1.9,4.42H5l7.66-17.57H14.57z M8.84,54.68h9.5l-4.53-10.55
		H13.4L8.84,54.68z"/>
	<path class="st0" d="M33.13,42.81c1.81,0,3.31,0.51,4.48,1.54s1.76,2.36,1.76,4c0,1.32-0.42,2.48-1.27,3.47
		c-0.85,1-1.94,1.65-3.27,1.97l4.84,6.54h-1.7l-4.53-6.24h-6.32v6.24h-1.37V42.81H33.13z M27.11,52.87h5.69
		c1.59,0,2.85-0.42,3.79-1.26c0.93-0.84,1.4-1.93,1.4-3.26c0-1.38-0.45-2.45-1.36-3.2c-0.91-0.76-2.15-1.14-3.72-1.14h-5.8V52.87z"
		/>
	<path class="st0" d="M51.62,43.64c-2.35,0-4.26,0.73-5.74,2.2c-1.48,1.46-2.22,3.38-2.22,5.73c0,2.4,0.74,4.32,2.22,5.76
		s3.37,2.16,5.66,2.16c2.36,0,4.42-0.77,6.19-2.3l0.82,0.92c-1.92,1.73-4.3,2.59-7.14,2.59c-1.8,0-3.38-0.36-4.75-1.09
		c-1.37-0.72-2.44-1.78-3.22-3.15c-0.77-1.38-1.16-2.99-1.16-4.84c0-1.29,0.23-2.5,0.68-3.63c0.45-1.12,1.09-2.1,1.9-2.92
		c0.82-0.82,1.83-1.47,3.04-1.93c1.21-0.47,2.53-0.7,3.97-0.7c1.09,0,2.2,0.21,3.34,0.62c1.14,0.41,2.12,0.96,2.94,1.63l-0.73,0.97
		C55.81,44.31,53.87,43.64,51.62,43.64z"/>
	<path class="st0" d="M63.57,42.81v7.92H75.3v-7.92h1.37v17.52H75.3v-8.39H63.57v8.39H62.2V42.81H63.57z"/>
	<path class="st0" d="M82.74,42.81v17.52h-1.37V42.81H82.74z"/>
	<path class="st0" d="M101.85,42.81v1.2h-6.99v16.32H93.5V44.01h-6.97v-1.2H101.85z"/>
	<path class="st0" d="M117.92,42.81v1.17h-10.93v6.66h9.54v1.17h-9.54v7.3h11.43v1.2h-12.8V42.81L117.92,42.81L117.92,42.81z"/>
	<path class="st0" d="M130.76,43.64c-2.35,0-4.26,0.73-5.74,2.2c-1.48,1.46-2.22,3.38-2.22,5.73c0,2.4,0.74,4.32,2.22,5.76
		s3.37,2.16,5.66,2.16c2.36,0,4.42-0.77,6.19-2.3l0.82,0.92c-1.92,1.73-4.3,2.59-7.14,2.59c-1.8,0-3.38-0.36-4.75-1.09
		c-1.37-0.72-2.44-1.78-3.22-3.15c-0.77-1.38-1.16-2.99-1.16-4.84c0-1.29,0.23-2.5,0.68-3.63c0.45-1.12,1.09-2.1,1.9-2.92
		c0.82-0.82,1.83-1.47,3.04-1.93c1.21-0.47,2.53-0.7,3.97-0.7c1.09,0,2.2,0.21,3.34,0.62c1.14,0.41,2.12,0.96,2.94,1.63l-0.73,0.97
		C134.95,44.31,133.01,43.64,130.76,43.64z"/>
	<path class="st0" d="M155.76,42.81v1.2h-6.99v16.32h-1.37V44.01h-6.97v-1.2H155.76z"/>
	<path class="st0" d="M164.94,43.64c-1.7,0-2.95,0.32-3.77,0.96c-0.82,0.64-1.23,1.48-1.23,2.52c0,0.97,0.31,1.72,0.94,2.23
		c0.63,0.52,1.58,0.88,2.88,1.09l2.94,0.42c1.7,0.23,2.99,0.74,3.9,1.54s1.36,1.87,1.36,3.2c0,1.46-0.66,2.68-1.97,3.64
		c-1.32,0.96-3.09,1.44-5.33,1.44c-1.34,0-2.56-0.16-3.64-0.47s-2.13-0.84-3.15-1.57l0.7-1.07c0.97,0.7,1.93,1.19,2.89,1.46
		c0.95,0.28,2.04,0.42,3.26,0.42c1.86,0,3.3-0.36,4.34-1.07c1.03-0.71,1.55-1.65,1.55-2.82c0-0.93-0.33-1.7-1-2.3
		c-0.66-0.61-1.7-1.01-3.12-1.19l-3.08-0.42c-3.21-0.44-4.81-1.94-4.81-4.5c0-1.46,0.58-2.61,1.74-3.45
		c1.16-0.84,2.69-1.26,4.6-1.26c1.14,0,2.26,0.15,3.37,0.46c1.11,0.31,2.06,0.75,2.87,1.34l-0.73,1.02
		c-0.73-0.51-1.58-0.91-2.55-1.19C166.92,43.78,165.94,43.64,164.94,43.64z"/>
</g>
</svg>
