<?xml version="1.0" encoding="utf-8"?>
<!-- Generator: Adobe Illustrator 26.1.0, SVG Export Plug-In . SVG Version: 6.00 Build 0)  -->
<svg version="1.1" id="Layer_1" xmlns="http://www.w3.org/2000/svg" xmlns:xlink="http://www.w3.org/1999/xlink" x="0px" y="0px"
	 viewBox="0 0 133.82 33" style="enable-background:new 0 0 133.82 33;" xml:space="preserve">
<style type="text/css">
	.st0{fill:#FFFFFF;}
</style>
<g>
	<path class="st0" d="M24.76,0.27h4.34c-1.5,3.29-2.57,6.33-3.23,9.11c-0.56,2.37-0.84,4.9-0.84,7.59c0,5.18,1.35,10.51,4.07,15.99
		h-4.34c-2.21-3.12-3.76-5.94-4.66-8.46s-1.34-5.17-1.34-7.94s0.47-5.59,1.41-8.18C21.1,5.81,22.63,3.09,24.76,0.27L24.76,0.27z"/>
	<path class="st0" d="M40.98,8.38c0.94,2.58,1.41,5.31,1.41,8.18s-0.44,5.41-1.34,7.94s-2.45,5.34-4.66,8.46h-4.34
		c2.72-5.47,4.07-10.8,4.07-15.99c0-2.69-0.28-5.22-0.84-7.59c-0.66-2.8-1.74-5.83-3.23-9.11h4.34C38.51,3.09,40.04,5.79,40.98,8.38
		L40.98,8.38L40.98,8.38z"/>
	<path class="st0" d="M0,32.96L3.2,0.01h11.23l3.14,32.95h-6.26l-0.47-5.31H6.85l-0.41,5.31H0L0,32.96z M7.32,22.39h3.01L8.87,5.63
		H8.58L7.32,22.39L7.32,22.39z"/>
	<path class="st0" d="M52.04,0.07h1.99l5.78,14.63h-2.17l-1.51-3.96h-6.22l-1.49,3.96h-2.17L52.04,0.07z M55.43,8.94l-2.44-6.4
		l-2.4,6.4H55.43z"/>
	<path class="st0" d="M59.73,3.44h0.72c0.7,0,1.22-0.59,1.22-1.39V0.56h1.73v2.88h2.49v1.75h-2.49v6.53c0,0.83,0.62,1.39,1.54,1.39
		c0.32,0,0.68-0.04,0.95-0.13l0.04,1.81c-0.36,0.11-0.84,0.17-1.27,0.17c-1.83,0-3.08-1.15-3.08-2.88V5.2h-1.86L59.73,3.44
		L59.73,3.44z"/>
	<path class="st0" d="M66.74,3.44h0.72c0.7,0,1.22-0.59,1.22-1.39V0.56h1.73v2.88h2.49v1.75H70.4v6.53c0,0.83,0.62,1.39,1.54,1.39
		c0.32,0,0.68-0.04,0.95-0.13l0.04,1.81c-0.36,0.11-0.84,0.17-1.27,0.17c-1.83,0-3.08-1.15-3.08-2.88V5.2h-1.86V3.44H66.74z"/>
	<path class="st0" d="M74.1,9.11c0-3.44,2.26-5.94,5.42-5.94c3.16,0,5.34,2.61,5.34,6.21c0,0.09,0,0.2-0.03,0.39h-8.75
		c0.27,2.01,1.67,3.4,3.53,3.4c1.49,0,2.85-0.95,3.12-2.25l2.03,0.63c-0.5,1.98-2.62,3.43-5.15,3.43
		C76.36,14.96,74.1,12.51,74.1,9.11L74.1,9.11z M82.92,8.02c-0.36-1.98-1.86-3.08-3.48-3.08s-2.96,1.23-3.31,3.08H82.92z"/>
	<path class="st0" d="M92.19,4.98c-1.87,0-3.44,1.55-3.44,3.69v6.04h-1.81V3.44h1.54l0.24,2.07c0.59-1.39,1.93-2.34,3.73-2.34
		c2.56,0,4.39,1.95,4.39,4.68v6.84h-1.81v-6.7C95.03,6.24,93.88,4.98,92.19,4.98L92.19,4.98L92.19,4.98z"/>
	<path class="st0" d="M98.03,3.44h0.72c0.7,0,1.22-0.59,1.22-1.39V0.56h1.73v2.88h2.49v1.75h-2.49v6.53c0,0.83,0.62,1.39,1.54,1.39
		c0.32,0,0.68-0.04,0.95-0.13l0.04,1.81c-0.36,0.11-0.84,0.17-1.27,0.17c-1.83,0-3.08-1.15-3.08-2.88V5.2h-1.86L98.03,3.44
		L98.03,3.44z"/>
	<path class="st0" d="M107.34-0.87c0.82,0,1.41,0.62,1.41,1.45s-0.59,1.45-1.41,1.45s-1.41-0.62-1.41-1.45
		C105.93-0.27,106.52-0.87,107.34-0.87z M108.24,3.44v11.24h-1.81V3.44C106.43,3.44,108.24,3.44,108.24,3.44z"/>
	<path class="st0" d="M110.54,9.07c0-3.43,2.37-5.89,5.65-5.89c3.28,0,5.65,2.48,5.65,5.89s-2.37,5.89-5.65,5.89
		C112.91,14.96,110.54,12.48,110.54,9.07z M116.2,13.17c2.17,0,3.75-1.71,3.75-4.09s-1.58-4.14-3.75-4.14s-3.75,1.74-3.75,4.14
		S114.03,13.17,116.2,13.17z"/>
	<path class="st0" d="M129.17,4.98c-1.87,0-3.44,1.55-3.44,3.69v6.04h-1.81V3.44h1.54l0.24,2.07c0.59-1.39,1.93-2.34,3.73-2.34
		c2.56,0,4.39,1.95,4.39,4.68v6.84h-1.81v-6.7C132.02,6.24,130.87,4.98,129.17,4.98L129.17,4.98L129.17,4.98z"/>
	<path class="st0" d="M47.69,18.09h2.4l7.73,11.66V18.09h1.9v14.63h-2.17l-7.96-11.83v11.83h-1.9V18.09L47.69,18.09z"/>
	<path class="st0" d="M61.99,27.14c0-3.44,2.26-5.94,5.42-5.94c3.16,0,5.34,2.61,5.34,6.21c0,0.09,0,0.2-0.03,0.39h-8.75
		c0.27,2.01,1.67,3.4,3.53,3.4c1.49,0,2.85-0.95,3.12-2.25l2.03,0.63C72.16,31.55,70.03,33,67.5,33
		C64.25,32.99,61.99,30.54,61.99,27.14L61.99,27.14z M70.81,26.03c-0.36-1.98-1.86-3.08-3.48-3.08s-2.96,1.23-3.31,3.08H70.81
		L70.81,26.03z"/>
	<path class="st0" d="M73.38,21.46h0.72c0.7,0,1.22-0.59,1.22-1.39v-1.49h1.73v2.88h2.49v1.75h-2.49v6.53
		c0,0.83,0.62,1.39,1.54,1.39c0.32,0,0.68-0.04,0.95-0.13l0.04,1.81c-0.36,0.11-0.84,0.17-1.27,0.17c-1.83,0-3.08-1.15-3.08-2.88
		v-6.88h-1.86L73.38,21.46L73.38,21.46L73.38,21.46z"/>
	<path class="st0" d="M82.65,21.46l1.22,8.91l2.49-8.91h1.99l2.36,8.91l1.35-8.91h1.81l-1.99,11.25H89.7l-2.4-8.82l-2.49,8.82h-2.26
		l-1.81-11.25H82.65L82.65,21.46z"/>
	<path class="st0" d="M94.95,27.08c0-3.43,2.37-5.89,5.65-5.89c3.28,0,5.65,2.48,5.65,5.89s-2.37,5.89-5.65,5.89
		C97.32,32.99,94.95,30.51,94.95,27.08z M100.6,31.19c2.17,0,3.75-1.71,3.75-4.09c0-2.38-1.58-4.14-3.75-4.14s-3.75,1.74-3.75,4.14
		C96.85,29.49,98.43,31.19,100.6,31.19z"/>
	<path class="st0" d="M108.33,21.46h1.54l0.23,1.87c0.55-1.3,1.63-2.14,2.94-2.14c0.45,0,0.88,0.11,1.27,0.27l-0.09,2.11
		c-0.45-0.27-0.99-0.36-1.35-0.36c-1.58,0-2.72,1.26-2.72,3.01v6.48h-1.81L108.33,21.46L108.33,21.46L108.33,21.46z"/>
	<path class="st0" d="M117.91,17.42v9.84l5.15-5.78h2.44l-4.39,4.76l4.83,6.48h-2.26l-3.77-5.15l-1.99,2.14v3.01h-1.81v-15.3H117.91
		L117.91,17.42z"/>
</g>
</svg>
