<?xml version="1.0" encoding="utf-8"?>
<!-- Generator: Adobe Illustrator 26.1.0, SVG Export Plug-In . SVG Version: 6.00 Build 0)  -->
<svg version="1.1" id="Layer_1" xmlns="http://www.w3.org/2000/svg" xmlns:xlink="http://www.w3.org/1999/xlink" x="0px" y="0px"
	 viewBox="0 0 103 22" style="enable-background:new 0 0 103 22;" xml:space="preserve">
<style type="text/css">
	.st0{fill:#FFFFFF;}
</style>
<g>
	<g>
		<path class="st0" d="M22.91,19.71c0,0.72,0,1.4,0,2.13c-1.48-1.42-2.94-2.81-4.41-4.22c1.44-1.42,2.87-2.84,4.33-4.28
			c0,0.08,0.01,0.12,0.01,0.17c0.01,0.6,0.01,1.2,0.02,1.8c0,0.1,0.03,0.14,0.14,0.14c1.5-0.01,2.99-0.02,4.49-0.03
			c0.61,0,1.23,0,1.84-0.01c0.13,0,0.27-0.01,0.4-0.03c0.3-0.05,0.46-0.14,0.74-0.38c-0.06,0.14-0.1,0.29-0.17,0.42
			c-0.52,0.9-1.04,1.79-1.56,2.68c-0.16,0.27-0.3,0.54-0.47,0.8c-0.31,0.49-0.77,0.76-1.36,0.77c-1.03,0.02-2.07,0.02-3.1,0.02
			C23.5,19.71,23.21,19.71,22.91,19.71z"/>
		<path class="st0" d="M24.79,9.07c-1.99-0.52-3.96-1.04-5.96-1.57c0.07-0.04,0.11-0.07,0.16-0.09c0.53-0.3,1.06-0.6,1.6-0.89
			c0.1-0.06,0.11-0.1,0.05-0.2c-1.06-1.8-2.11-3.59-3.17-5.39c-0.15-0.26-0.34-0.5-0.64-0.61c-0.07-0.03-0.15-0.05-0.23-0.07
			c0-0.01,0-0.02-0.01-0.04c0.14-0.02,0.29-0.05,0.43-0.05c1.32,0,2.65,0.01,3.97,0c0.72,0,1.25,0.29,1.6,0.91
			c0.6,1.04,1.22,2.07,1.83,3.11c0.06,0.11,0.11,0.13,0.23,0.07c0.54-0.31,1.08-0.6,1.62-0.9c0.03-0.02,0.07-0.04,0.13-0.07
			C25.87,5.22,25.33,7.13,24.79,9.07z"/>
		<path class="st0" d="M8,9.57c2-0.52,3.97-1.04,5.97-1.56c0.53,1.93,1.06,3.85,1.6,5.81c-0.12-0.07-0.22-0.12-0.3-0.17
			c-0.48-0.27-0.96-0.54-1.44-0.81c-0.12-0.07-0.17-0.05-0.23,0.06c-1.07,1.79-2.13,3.58-3.2,5.37c-0.2,0.33-0.3,0.68-0.15,1.06
			c-0.01,0.01-0.02,0.01-0.04,0.02c-0.09-0.11-0.19-0.22-0.27-0.34c-0.55-0.91-1.09-1.83-1.63-2.74c-0.14-0.24-0.28-0.47-0.42-0.71
			c-0.3-0.53-0.3-1.06,0-1.58c0.63-1.08,1.27-2.15,1.91-3.23c0.06-0.1,0.04-0.14-0.05-0.2c-0.54-0.3-1.08-0.61-1.61-0.91
			C8.11,9.63,8.07,9.61,8,9.57z"/>
		<path class="st0" d="M17.24,15.51c0,1.43,0,2.84,0,4.27c-0.05,0-0.08,0.01-0.12,0.01c-1.91,0-3.83,0-5.74-0.01
			c-0.19,0-0.39-0.03-0.56-0.09c-0.45-0.14-0.64-0.5-0.51-0.95c0.05-0.18,0.14-0.35,0.23-0.51c0.51-0.86,1.03-1.73,1.54-2.59
			c0.06-0.09,0.11-0.14,0.23-0.14c1.59,0.01,3.19,0,4.78,0C17.13,15.51,17.18,15.51,17.24,15.51z"/>
		<path class="st0" d="M23.49,11.08c1.26-0.72,2.51-1.44,3.78-2.16c0.15,0.24,0.29,0.48,0.43,0.72c0.86,1.43,1.72,2.86,2.58,4.28
			c0.14,0.23,0.22,0.48,0.18,0.75c-0.05,0.35-0.36,0.61-0.79,0.64c-0.4,0.03-0.81,0.03-1.22,0.03c-0.76,0.01-1.51,0-2.27,0.01
			c-0.09,0-0.14-0.02-0.19-0.1c-0.82-1.36-1.64-2.72-2.46-4.08C23.52,11.15,23.51,11.12,23.49,11.08z"/>
		<path class="st0" d="M16.48,8.06c-1.27-0.72-2.52-1.43-3.79-2.14c0.1-0.17,0.2-0.34,0.3-0.5c0.88-1.47,1.76-2.94,2.64-4.41
			c0.12-0.19,0.25-0.37,0.44-0.51c0.28-0.21,0.62-0.23,0.9-0.02c0.16,0.12,0.31,0.28,0.41,0.45c0.55,0.91,1.08,1.83,1.62,2.75
			c0.04,0.06,0.05,0.11,0,0.18c-0.82,1.37-1.64,2.75-2.46,4.12C16.52,8,16.51,8.02,16.48,8.06z"/>
	</g>
	<g>
		<path class="st0" d="M36.49,13.11v-0.97l1.24-1.21c2.99-2.85,4.35-4.36,4.36-6.13c0-1.19-0.58-2.29-2.33-2.29
			c-1.06,0-1.95,0.54-2.49,0.99l-0.5-1.12c0.81-0.69,1.97-1.19,3.32-1.19c2.52,0,3.59,1.73,3.59,3.41c0,2.16-1.57,3.91-4.04,6.29
			l-0.94,0.87v0.04h5.26v1.32H36.49z"/>
		<path class="st0" d="M46.29,13.11V0.95h1.71L51.9,7.1c0.9,1.42,1.6,2.7,2.18,3.95l0.04-0.02c-0.14-1.62-0.18-3.1-0.18-4.99V0.95
			h1.48v12.15h-1.59l-3.86-6.17c-0.85-1.35-1.66-2.74-2.27-4.06L47.65,2.9c0.09,1.53,0.13,2.99,0.13,5.01v5.19L46.29,13.11
			L46.29,13.11z"/>
		<path class="st0" d="M58.16,1.12c0.96-0.14,2.09-0.25,3.34-0.25c2.25,0,3.86,0.52,4.92,1.51c1.08,0.99,1.71,2.4,1.71,4.36
			c0,1.98-0.61,3.61-1.75,4.72c-1.14,1.14-3.01,1.75-5.37,1.75c-1.12,0-2.06-0.05-2.85-0.14L58.16,1.12L58.16,1.12z M59.73,11.86
			c0.4,0.07,0.97,0.09,1.59,0.09c3.35,0,5.17-1.88,5.17-5.16c0.02-2.87-1.6-4.69-4.92-4.69c-0.81,0-1.42,0.07-1.84,0.16L59.73,11.86
			L59.73,11.86z"/>
		<path class="st0" d="M69.95,11.2c0.7,0.43,1.73,0.79,2.81,0.79c1.6,0,2.54-0.85,2.54-2.07c0-1.14-0.65-1.79-2.29-2.42
			c-1.98-0.7-3.21-1.73-3.21-3.44c0-1.89,1.57-3.3,3.93-3.3c1.24,0,2.15,0.29,2.69,0.6l-0.43,1.28c-0.4-0.22-1.21-0.58-2.31-0.58
			c-1.66,0-2.29,0.99-2.29,1.82c0,1.14,0.74,1.69,2.42,2.34c2.06,0.79,3.1,1.79,3.1,3.57c0,1.88-1.39,3.5-4.26,3.5
			c-1.17,0-2.45-0.34-3.1-0.78L69.95,11.2z"/>
		<path class="st0" d="M84.45,0.95v12.15h-1.57V0.95H84.45z"/>
		<path class="st0" d="M89.5,2.29h-3.7V0.95h9v1.33h-3.71v10.82H89.5L89.5,2.29L89.5,2.29z"/>
		<path class="st0" d="M37.78,18.63h-1.64v1.52h1.82v0.46h-2.37v-4.21h2.27v0.46h-1.73v1.33h1.64L37.78,18.63L37.78,18.63z"/>
		<path class="st0" d="M39.93,18.71v0.41h-1.54v-0.41H39.93z"/>
		<path class="st0" d="M41.21,20.6l-1.07-4.21h0.57l0.5,2.13c0.12,0.52,0.24,1.05,0.31,1.45h0.01c0.07-0.42,0.2-0.92,0.34-1.46
			l0.56-2.12h0.57l0.51,2.14c0.12,0.5,0.23,1,0.29,1.44h0.01c0.09-0.46,0.21-0.93,0.34-1.45l0.56-2.12h0.56l-1.19,4.21h-0.57
			l-0.53-2.19c-0.13-0.54-0.22-0.95-0.27-1.37H42.7c-0.08,0.42-0.17,0.83-0.32,1.37l-0.6,2.19L41.21,20.6L41.21,20.6z"/>
		<path class="st0" d="M46.13,19.28l-0.44,1.32h-0.56l1.43-4.21h0.66l1.44,4.21h-0.58l-0.45-1.32H46.13z M47.51,18.85l-0.41-1.21
			c-0.09-0.27-0.16-0.52-0.22-0.77h-0.01c-0.06,0.25-0.13,0.51-0.21,0.76l-0.41,1.22L47.51,18.85L47.51,18.85z"/>
		<path class="st0" d="M49.2,19.94c0.24,0.15,0.6,0.27,0.97,0.27c0.56,0,0.88-0.29,0.88-0.72c0-0.39-0.22-0.62-0.79-0.84
			c-0.69-0.24-1.11-0.6-1.11-1.19c0-0.66,0.54-1.14,1.36-1.14c0.43,0,0.74,0.1,0.93,0.21l-0.15,0.44c-0.14-0.08-0.42-0.2-0.8-0.2
			c-0.57,0-0.79,0.34-0.79,0.63c0,0.39,0.26,0.59,0.84,0.81c0.71,0.27,1.07,0.62,1.07,1.24c0,0.65-0.48,1.21-1.47,1.21
			c-0.41,0-0.85-0.12-1.07-0.27L49.2,19.94z"/>
		<path class="st0" d="M53.15,16.85h-1.28v-0.46h3.12v0.46H53.7v3.75h-0.55V16.85z"/>
		<path class="st0" d="M57.63,18.63H56v1.52h1.82v0.46h-2.37v-4.21h2.27v0.46H56v1.33h1.64V18.63z"/>
		<path class="st0" d="M63.39,18.75c-0.03-0.59-0.07-1.29-0.06-1.82h-0.02c-0.14,0.49-0.32,1.02-0.53,1.6l-0.74,2.04h-0.41l-0.68-2
			c-0.2-0.59-0.37-1.14-0.49-1.64h-0.01c-0.01,0.52-0.04,1.23-0.08,1.86l-0.11,1.8h-0.52l0.29-4.21h0.69l0.72,2.04
			c0.17,0.52,0.32,0.98,0.42,1.42h0.02c0.11-0.42,0.26-0.89,0.44-1.42l0.75-2.04h0.69l0.26,4.21H63.5L63.39,18.75z"/>
		<path class="st0" d="M65.49,19.28l-0.44,1.32h-0.56l1.43-4.21h0.66l1.44,4.21h-0.58l-0.45-1.32H65.49z M66.87,18.85l-0.41-1.21
			c-0.09-0.27-0.16-0.52-0.22-0.77h-0.01c-0.06,0.25-0.13,0.51-0.21,0.76l-0.41,1.22L66.87,18.85L66.87,18.85z"/>
		<path class="st0" d="M68.63,20.6v-4.21h0.59l1.35,2.13c0.31,0.49,0.56,0.94,0.76,1.37l0.01-0.01c-0.05-0.56-0.06-1.07-0.06-1.73
			v-1.76h0.51v4.21h-0.55l-1.34-2.14c-0.29-0.47-0.57-0.95-0.79-1.4l-0.02,0.01c0.03,0.53,0.04,1.04,0.04,1.74v1.8L68.63,20.6
			L68.63,20.6z"/>
		<path class="st0" d="M73.42,19.28l-0.44,1.32h-0.56l1.43-4.21h0.66l1.44,4.21h-0.58l-0.45-1.32H73.42z M74.79,18.85l-0.41-1.21
			c-0.09-0.27-0.16-0.52-0.22-0.77h-0.01c-0.06,0.25-0.13,0.51-0.21,0.76l-0.41,1.22L74.79,18.85L74.79,18.85z"/>
		<path class="st0" d="M79.66,20.41c-0.24,0.09-0.72,0.23-1.29,0.23c-0.64,0-1.16-0.16-1.57-0.56c-0.36-0.35-0.59-0.91-0.59-1.57
			c0.01-1.25,0.87-2.17,2.28-2.17c0.49,0,0.87,0.11,1.05,0.19l-0.13,0.44c-0.22-0.1-0.51-0.18-0.93-0.18
			c-1.02,0-1.69,0.64-1.69,1.69c0,1.07,0.64,1.7,1.62,1.7c0.36,0,0.6-0.05,0.72-0.11v-1.25h-0.86v-0.44h1.39L79.66,20.41
			L79.66,20.41z"/>
		<path class="st0" d="M84.04,18.75c-0.03-0.59-0.07-1.29-0.06-1.82h-0.02c-0.14,0.49-0.32,1.02-0.53,1.6l-0.74,2.04h-0.41l-0.68-2
			c-0.2-0.59-0.37-1.14-0.49-1.64h-0.01c-0.01,0.52-0.04,1.23-0.08,1.86l-0.11,1.8h-0.52l0.29-4.21h0.69l0.72,2.04
			c0.17,0.52,0.32,0.98,0.42,1.42h0.02c0.11-0.42,0.26-0.89,0.44-1.42l0.75-2.04h0.69l0.26,4.21h-0.53L84.04,18.75z"/>
		<path class="st0" d="M87.69,18.63h-1.64v1.52h1.82v0.46h-2.37v-4.21h2.27v0.46h-1.73v1.33h1.64L87.69,18.63L87.69,18.63z"/>
		<path class="st0" d="M88.59,20.6v-4.21h0.59l1.35,2.13c0.31,0.49,0.56,0.94,0.76,1.37l0.01-0.01c-0.05-0.56-0.06-1.07-0.06-1.73
			v-1.76h0.51v4.21H91.2l-1.34-2.14c-0.29-0.47-0.57-0.95-0.79-1.4l-0.02,0.01c0.03,0.53,0.04,1.04,0.04,1.74v1.8L88.59,20.6
			L88.59,20.6z"/>
		<path class="st0" d="M93.49,16.85h-1.28v-0.46h3.12v0.46h-1.29v3.75h-0.55V16.85z"/>
	</g>
</g>
</svg>
