<?xml version="1.0" encoding="utf-8"?>
<!-- Generator: Adobe Illustrator 26.1.0, SVG Export Plug-In . SVG Version: 6.00 Build 0)  -->
<svg version="1.1" id="Layer_1" xmlns="http://www.w3.org/2000/svg" xmlns:xlink="http://www.w3.org/1999/xlink" x="0px" y="0px"
	 viewBox="0 0 176.6 25" style="enable-background:new 0 0 176.6 25;" xml:space="preserve">
<style type="text/css">
	.st0{fill:#FFFFFF;}
</style>
<g>
	<g>
		<path class="st0" d="M7.95,0.26c1.35,0,2.39,0.3,3.13,0.89c0.74,0.59,1.11,1.41,1.11,2.45c0,0.51-0.11,0.97-0.32,1.37
			c-0.21,0.4-0.5,0.7-0.87,0.89v0.16c0.59,0.19,1.07,0.54,1.43,1.05c0.36,0.51,0.54,1.09,0.54,1.76c0,0.51-0.09,0.98-0.27,1.41
			c-0.18,0.43-0.45,0.81-0.81,1.15c-0.36,0.34-0.83,0.6-1.42,0.8c-0.59,0.19-1.26,0.29-2.02,0.29h-5.9V0.26L7.95,0.26L7.95,0.26z
			 M5.27,5.08h2.79c0.46,0,0.82-0.11,1.09-0.34s0.39-0.53,0.39-0.93c0-0.81-0.52-1.22-1.57-1.22h-2.7V5.08z M5.27,10.14h3.22
			c1.2,0,1.81-0.48,1.81-1.44c0-0.46-0.16-0.81-0.47-1.05C9.51,7.42,9.06,7.3,8.47,7.3h-3.2V10.14z"/>
		<path class="st0" d="M22.32,0.24l5.05,12.23h-3.03l-0.93-2.42h-5.23l-0.91,2.42H14.3l5.01-12.23L22.32,0.24L22.32,0.24z
			 M19.07,7.64h3.45L20.89,3h-0.18L19.07,7.64z"/>
		<path class="st0" d="M32.22,0.26v9.71h6.6v2.5h-9.33V0.26L32.22,0.26L32.22,0.26z"/>
		<path class="st0" d="M49.95,0.26v2.46h-6.27v2.59h5.38v2.4h-5.38v4.76h-2.7V0.26L49.95,0.26L49.95,0.26z"/>
		<path class="st0" d="M58.44,0.24l5.05,12.23h-3.03l-0.93-2.42H54.3l-0.91,2.42h-2.97l5.01-12.23L58.44,0.24L58.44,0.24z
			 M55.19,7.64h3.45L57.02,3h-0.18L55.19,7.64z"/>
		<path class="st0" d="M76,15.3l-3.34-2.73c-0.5,0.11-1,0.17-1.5,0.17c-0.93,0-1.8-0.16-2.61-0.49s-1.49-0.77-2.06-1.34
			s-1.01-1.24-1.33-2.02c-0.32-0.78-0.48-1.62-0.48-2.52c0-1.16,0.27-2.23,0.82-3.2c0.55-0.97,1.32-1.74,2.31-2.31
			c0.99-0.57,2.11-0.85,3.34-0.85c0.95,0,1.83,0.16,2.64,0.49s1.5,0.77,2.06,1.33c0.56,0.56,1,1.24,1.32,2.02s0.48,1.63,0.48,2.53
			c0,1.02-0.21,1.96-0.62,2.83c-0.42,0.87-1,1.59-1.76,2.18l2.39,1.79L76,15.3z M71.16,2.45c-0.76,0-1.43,0.18-2.01,0.53
			c-0.58,0.35-1.01,0.82-1.31,1.41c-0.29,0.59-0.44,1.25-0.44,1.98c0,1.13,0.34,2.07,1.02,2.81c0.68,0.74,1.59,1.11,2.73,1.11
			c0.78,0,1.46-0.18,2.03-0.54s1.01-0.83,1.3-1.42c0.29-0.58,0.43-1.24,0.43-1.96c0-1.15-0.34-2.09-1.01-2.82
			C73.23,2.82,72.31,2.45,71.16,2.45z"/>
		<path class="st0" d="M82.7,0.26v12.21h-2.75V0.26L82.7,0.26L82.7,0.26z"/>
		<path class="st0" d="M88.31,0.26v4.77h5.34V0.26h2.75v12.21h-2.75V7.57h-5.34v4.91h-2.75V0.26L88.31,0.26L88.31,0.26z"/>
		<path class="st0" d="M112.98,3.5c-0.97-0.71-2.13-1.07-3.48-1.07c-1.48,0-2.22,0.4-2.22,1.2c0,0.35,0.13,0.61,0.38,0.79
			c0.25,0.18,0.66,0.3,1.23,0.37l1.78,0.23c1.33,0.18,2.33,0.59,3,1.22c0.67,0.64,1,1.48,1,2.51c0,1.22-0.46,2.18-1.38,2.89
			c-0.92,0.71-2.22,1.07-3.91,1.07c-1.04,0-1.97-0.11-2.79-0.32c-0.82-0.21-1.62-0.57-2.39-1.09l1.15-2.24
			c1.26,0.79,2.66,1.18,4.19,1.18c0.78,0,1.38-0.12,1.79-0.36c0.41-0.24,0.61-0.57,0.61-0.99c0-0.36-0.14-0.65-0.41-0.85
			c-0.27-0.21-0.71-0.35-1.33-0.43l-1.88-0.23c-2.5-0.33-3.76-1.54-3.76-3.65c0-1.19,0.44-2.11,1.33-2.77
			c0.88-0.66,2.07-0.99,3.56-0.99c2.03,0,3.66,0.52,4.89,1.55L112.98,3.5z"/>
		<path class="st0" d="M126.86,0.26v2.47h-4.17v9.74h-2.71V2.74h-4.17V0.26H126.86z"/>
		<path class="st0" d="M131.82,0.26v6.8c0,1,0.24,1.79,0.71,2.35c0.47,0.57,1.16,0.85,2.06,0.85c0.91,0,1.61-0.27,2.07-0.81
			c0.47-0.54,0.7-1.33,0.7-2.36V0.26h2.75v6.78c0,1.74-0.48,3.12-1.44,4.15c-0.96,1.03-2.32,1.54-4.09,1.54
			c-1.76,0-3.12-0.5-4.08-1.51s-1.44-2.38-1.44-4.13V0.26L131.82,0.26L131.82,0.26z"/>
		<path class="st0" d="M147.48,0.26c2.02,0,3.62,0.56,4.82,1.69c1.2,1.13,1.79,2.6,1.79,4.42c0,0.88-0.16,1.69-0.48,2.45
			c-0.32,0.75-0.77,1.4-1.34,1.94c-0.57,0.54-1.28,0.96-2.11,1.26c-0.84,0.31-1.75,0.46-2.74,0.46h-4.44V0.26L147.48,0.26
			L147.48,0.26z M145.69,10.02h1.75c1.15,0,2.08-0.33,2.82-0.99c0.73-0.66,1.1-1.55,1.1-2.66c0-1.19-0.34-2.1-1.01-2.72
			c-0.67-0.62-1.65-0.93-2.93-0.93h-1.73L145.69,10.02L145.69,10.02z"/>
		<path class="st0" d="M159.14,0.26v12.21h-2.75V0.26L159.14,0.26L159.14,0.26z"/>
		<path class="st0" d="M167.92,0c0.95,0,1.83,0.16,2.64,0.49s1.5,0.77,2.06,1.33c0.56,0.56,1,1.24,1.32,2.02
			c0.32,0.78,0.48,1.63,0.48,2.53c0,0.87-0.16,1.69-0.48,2.47c-0.32,0.78-0.76,1.45-1.32,2.03c-0.56,0.58-1.25,1.03-2.06,1.37
			c-0.82,0.34-1.69,0.5-2.63,0.5c-0.93,0-1.8-0.16-2.61-0.49c-0.81-0.33-1.49-0.77-2.06-1.34c-0.56-0.56-1.01-1.24-1.33-2.02
			s-0.48-1.62-0.48-2.52c0-1.16,0.27-2.23,0.82-3.2c0.55-0.97,1.32-1.74,2.31-2.31C165.57,0.29,166.68,0,167.92,0z M167.92,2.45
			c-0.76,0-1.43,0.18-2.01,0.53c-0.58,0.35-1.01,0.82-1.31,1.41s-0.44,1.25-0.44,1.98c0,1.13,0.34,2.07,1.02,2.81
			c0.68,0.74,1.59,1.11,2.73,1.11c0.78,0,1.46-0.18,2.03-0.54s1.01-0.83,1.3-1.42c0.29-0.58,0.43-1.24,0.43-1.96
			c0-1.15-0.34-2.09-1.01-2.82S169.07,2.45,167.92,2.45z"/>
		<path class="st0" d="M1.75,17.15v7.18H0.14v-7.18H1.75z"/>
		<path class="st0" d="M4.56,18.87l0.09,0.8c0.37-0.62,0.95-0.93,1.75-0.93c0.36,0,0.69,0.08,0.98,0.23
			c0.29,0.15,0.52,0.37,0.67,0.64c0.2-0.27,0.45-0.49,0.77-0.64c0.32-0.15,0.66-0.23,1.05-0.23c0.74,0,1.29,0.2,1.66,0.61
			c0.36,0.41,0.55,0.99,0.55,1.74v3.23h-1.54v-3.17c0-0.35-0.08-0.61-0.23-0.8c-0.15-0.18-0.38-0.27-0.67-0.27
			c-0.49,0-0.87,0.21-1.14,0.63c0.04,0.2,0.06,0.35,0.06,0.46v3.15H7v-3.16c0-0.72-0.3-1.08-0.9-1.08c-0.27,0-0.53,0.1-0.76,0.29
			s-0.39,0.44-0.48,0.75v3.21H3.32v-5.46L4.56,18.87L4.56,18.87z"/>
		<path class="st0" d="M14.76,18.87l0.09,0.8c0.37-0.62,0.95-0.93,1.75-0.93c0.36,0,0.69,0.08,0.98,0.23
			c0.29,0.15,0.52,0.37,0.67,0.64c0.2-0.27,0.45-0.49,0.77-0.64c0.31-0.15,0.66-0.23,1.05-0.23c0.74,0,1.29,0.2,1.66,0.61
			s0.55,0.99,0.55,1.74v3.23h-1.54v-3.17c0-0.35-0.08-0.61-0.23-0.8c-0.15-0.18-0.38-0.27-0.67-0.27c-0.49,0-0.87,0.21-1.14,0.63
			c0.04,0.2,0.06,0.35,0.06,0.46v3.15H17.2v-3.16c0-0.72-0.3-1.08-0.9-1.08c-0.27,0-0.53,0.1-0.76,0.29s-0.39,0.44-0.48,0.75v3.21
			h-1.54v-5.46L14.76,18.87L14.76,18.87z"/>
		<path class="st0" d="M25.01,22.09c0.06,0.31,0.22,0.56,0.48,0.75c0.26,0.19,0.61,0.28,1.05,0.28c0.68,0,1.28-0.17,1.78-0.52
			l0.65,1.11c-0.7,0.5-1.54,0.74-2.52,0.74c-0.95,0-1.68-0.26-2.2-0.77c-0.52-0.51-0.78-1.21-0.78-2.08c0-0.4,0.07-0.77,0.21-1.12
			s0.34-0.65,0.6-0.91c0.25-0.26,0.57-0.46,0.94-0.61c0.37-0.15,0.78-0.22,1.23-0.22c0.78,0,1.41,0.24,1.9,0.72
			c0.49,0.48,0.73,1.11,0.73,1.89c0,0.23-0.03,0.48-0.09,0.75L25.01,22.09L25.01,22.09z M27.53,20.96c-0.02-0.29-0.12-0.51-0.3-0.67
			c-0.19-0.16-0.45-0.25-0.81-0.25c-0.71,0-1.16,0.31-1.36,0.92H27.53z"/>
		<path class="st0" d="M31.54,18.87l0.09,0.87c0.36-0.67,0.99-1,1.9-1c0.34,0,0.66,0.06,0.96,0.17s0.56,0.28,0.77,0.48l-0.88,1.18
			c-0.31-0.28-0.71-0.42-1.18-0.42c-0.31,0-0.59,0.09-0.83,0.28c-0.24,0.19-0.42,0.44-0.53,0.75v3.15H30.3v-5.46L31.54,18.87
			L31.54,18.87z"/>
		<path class="st0" d="M40.23,20.46c-0.52-0.29-1.11-0.43-1.76-0.43c-0.62,0-0.93,0.14-0.93,0.43c0,0.21,0.16,0.33,0.49,0.37
			l1.04,0.12c0.65,0.08,1.14,0.26,1.48,0.52c0.33,0.26,0.5,0.65,0.5,1.16c0,0.57-0.24,1.02-0.71,1.34
			c-0.47,0.32-1.13,0.48-1.98,0.48c-0.49,0-0.94-0.05-1.33-0.15c-0.39-0.1-0.79-0.27-1.18-0.51l0.58-1.14
			c0.58,0.34,1.23,0.51,1.96,0.51c0.78,0,1.17-0.15,1.17-0.45c0-0.12-0.05-0.21-0.14-0.27c-0.09-0.06-0.24-0.1-0.45-0.12l-1.23-0.14
			c-1.14-0.13-1.7-0.68-1.7-1.66c0-0.55,0.21-0.99,0.64-1.31c0.43-0.32,1.03-0.48,1.81-0.48c0.91,0,1.69,0.19,2.34,0.58L40.23,20.46
			z"/>
		<path class="st0" d="M43.07,16.13c0.26,0,0.48,0.09,0.67,0.25c0.18,0.17,0.27,0.39,0.27,0.67c0,0.27-0.09,0.49-0.28,0.67
			c-0.19,0.17-0.41,0.26-0.66,0.26c-0.25,0-0.47-0.09-0.66-0.26c-0.19-0.17-0.29-0.4-0.29-0.66c0-0.27,0.09-0.49,0.28-0.66
			C42.59,16.22,42.81,16.13,43.07,16.13z M43.84,18.87v5.46h-1.54v-5.46H43.84z"/>
		<path class="st0" d="M46.76,18.87l1.28,3.97h0.1l1.28-3.97h1.75l-2.31,5.48h-1.62l-2.3-5.48H46.76z"/>
		<path class="st0" d="M53.32,22.09c0.06,0.31,0.22,0.56,0.48,0.75c0.26,0.19,0.61,0.28,1.05,0.28c0.68,0,1.28-0.17,1.78-0.52
			l0.65,1.11c-0.7,0.5-1.54,0.74-2.52,0.74c-0.95,0-1.68-0.26-2.2-0.77c-0.52-0.51-0.78-1.21-0.78-2.08c0-0.4,0.07-0.77,0.21-1.12
			s0.34-0.65,0.6-0.91c0.25-0.26,0.57-0.46,0.94-0.61c0.37-0.15,0.78-0.22,1.23-0.22c0.78,0,1.41,0.24,1.9,0.72
			c0.49,0.48,0.73,1.11,0.73,1.89c0,0.23-0.03,0.48-0.09,0.75L53.32,22.09L53.32,22.09z M55.84,20.96c-0.02-0.29-0.12-0.51-0.3-0.67
			c-0.19-0.16-0.45-0.25-0.81-0.25c-0.71,0-1.16,0.31-1.36,0.92H55.84z"/>
		<path class="st0" d="M68.53,20.23c0,1.21-0.35,2.21-1.04,3L68.24,24l-1.12,1l-0.82-0.89c-0.52,0.24-1.07,0.37-1.67,0.37
			c-0.9,0-1.61-0.24-2.11-0.71s-0.75-1.08-0.75-1.82c0-0.42,0.09-0.81,0.26-1.15c0.18-0.35,0.43-0.62,0.76-0.83
			c-0.1-0.2-0.16-0.45-0.16-0.78c0-0.56,0.22-1.04,0.66-1.41c0.44-0.38,1.04-0.57,1.8-0.57c1,0,1.81,0.31,2.44,0.94l-0.91,1.05
			c-0.21-0.21-0.43-0.37-0.66-0.48c-0.23-0.11-0.51-0.16-0.83-0.16c-0.31,0-0.56,0.08-0.75,0.23c-0.18,0.15-0.27,0.34-0.27,0.56
			c0,0.27,0.09,0.49,0.27,0.67l2.11,2.18c0.37-0.52,0.55-1.18,0.55-1.98H68.53z M63.51,21.01c-0.18,0.21-0.27,0.46-0.27,0.75
			c0,0.41,0.13,0.74,0.4,0.98c0.26,0.25,0.62,0.37,1.07,0.37c0.19,0,0.39-0.03,0.62-0.09L63.51,21.01z"/>
		<path class="st0" d="M74.96,17.15v7.18h-1.62v-7.18H74.96z"/>
		<path class="st0" d="M77.75,18.87l0.1,0.87c0.16-0.32,0.4-0.57,0.72-0.74c0.32-0.17,0.69-0.26,1.11-0.26
			c0.74,0,1.31,0.21,1.72,0.62s0.61,1.01,0.61,1.8v3.17h-1.52v-3.04c0-0.4-0.09-0.7-0.27-0.9c-0.18-0.2-0.44-0.3-0.77-0.3
			c-0.33,0-0.61,0.1-0.85,0.29c-0.24,0.19-0.42,0.47-0.54,0.83v3.13h-1.53v-5.46L77.75,18.87L77.75,18.87z"/>
		<path class="st0" d="M83.81,18.89l0.15-1.46l1.45,0.07l-0.06,1.36h1.82v1.36h-1.81v2.13c0,0.23,0.06,0.4,0.2,0.52
			s0.31,0.18,0.55,0.18c0.35,0,0.66-0.09,0.93-0.28l0.51,1.18c-0.5,0.33-1.08,0.5-1.75,0.5c-0.64,0-1.12-0.18-1.46-0.53
			c-0.34-0.36-0.51-0.89-0.51-1.59v-2.11h-0.81v-1.28L83.81,18.89z"/>
		<path class="st0" d="M89.67,22.09c0.06,0.31,0.22,0.56,0.48,0.75c0.26,0.19,0.61,0.28,1.05,0.28c0.68,0,1.28-0.17,1.78-0.52
			l0.65,1.11c-0.7,0.5-1.54,0.74-2.52,0.74c-0.95,0-1.68-0.26-2.2-0.77c-0.52-0.51-0.78-1.21-0.78-2.08c0-0.4,0.07-0.77,0.21-1.12
			s0.34-0.65,0.6-0.91c0.25-0.26,0.57-0.46,0.94-0.61c0.37-0.15,0.78-0.22,1.23-0.22c0.78,0,1.41,0.24,1.9,0.72
			c0.49,0.48,0.73,1.11,0.73,1.89c0,0.23-0.03,0.48-0.09,0.75L89.67,22.09L89.67,22.09z M92.19,20.96c-0.02-0.29-0.12-0.51-0.3-0.67
			c-0.19-0.16-0.45-0.25-0.81-0.25c-0.71,0-1.16,0.31-1.36,0.92H92.19z"/>
		<path class="st0" d="M96.19,18.87l0.09,0.87c0.36-0.67,0.99-1,1.9-1c0.34,0,0.66,0.06,0.96,0.17c0.3,0.12,0.56,0.28,0.77,0.48
			l-0.88,1.18c-0.31-0.28-0.71-0.42-1.18-0.42c-0.31,0-0.59,0.09-0.83,0.28c-0.24,0.19-0.42,0.44-0.53,0.75v3.15h-1.53v-5.46
			L96.19,18.87L96.19,18.87z"/>
		<path class="st0" d="M100.73,19.38c0.71-0.43,1.51-0.64,2.38-0.64c0.85,0,1.48,0.21,1.89,0.62c0.41,0.41,0.62,0.98,0.62,1.71v1.65
			c0,0.29,0.11,0.43,0.32,0.43c0.08,0,0.14-0.01,0.18-0.03l0.14,1.21c-0.22,0.08-0.46,0.12-0.71,0.12c-0.66,0-1.05-0.28-1.16-0.85
			c-0.4,0.57-1.02,0.86-1.88,0.86c-0.65,0-1.16-0.16-1.52-0.47c-0.37-0.32-0.55-0.77-0.55-1.35c0-0.57,0.23-1.01,0.69-1.32
			c0.46-0.31,1.08-0.46,1.86-0.46c0.35,0,0.73,0.05,1.12,0.15v-0.17c0-0.5-0.34-0.75-1-0.75c-0.6,0-1.19,0.14-1.77,0.41
			L100.73,19.38z M104.12,22.07c-0.36-0.08-0.72-0.12-1.09-0.12c-0.68,0-1.02,0.2-1.02,0.61c0,0.39,0.26,0.58,0.78,0.58
			c0.41,0,0.74-0.09,0.98-0.27c0.24-0.18,0.36-0.41,0.36-0.67L104.12,22.07L104.12,22.07z"/>
		<path class="st0" d="M111.26,20.61c-0.35-0.33-0.82-0.49-1.39-0.49c-0.41,0-0.76,0.13-1.05,0.4c-0.28,0.27-0.42,0.62-0.42,1.05
			c0,0.45,0.13,0.82,0.4,1.09c0.26,0.27,0.62,0.41,1.06,0.41c0.58,0,1.06-0.19,1.44-0.57l0.89,1.01c-0.61,0.63-1.41,0.95-2.4,0.95
			c-0.46,0-0.88-0.07-1.26-0.22c-0.37-0.15-0.68-0.35-0.92-0.61c-0.24-0.26-0.42-0.56-0.55-0.9c-0.13-0.34-0.19-0.71-0.19-1.11
			c0-0.54,0.13-1.04,0.39-1.47s0.61-0.78,1.06-1.03c0.45-0.25,0.95-0.37,1.5-0.37c0.48,0,0.91,0.07,1.27,0.21s0.7,0.35,1.01,0.63
			L111.26,20.61z"/>
		<path class="st0" d="M113.82,18.89l0.15-1.46l1.45,0.07l-0.06,1.36h1.82v1.36h-1.81v2.13c0,0.23,0.06,0.4,0.2,0.52
			s0.31,0.18,0.55,0.18c0.35,0,0.66-0.09,0.93-0.28l0.51,1.18c-0.5,0.33-1.08,0.5-1.75,0.5c-0.64,0-1.12-0.18-1.46-0.53
			c-0.34-0.36-0.51-0.89-0.51-1.59v-2.11h-0.81v-1.28L113.82,18.89z"/>
		<path class="st0" d="M119.27,16.13c0.26,0,0.48,0.09,0.67,0.25c0.18,0.17,0.27,0.39,0.27,0.67c0,0.27-0.09,0.49-0.28,0.67
			c-0.19,0.17-0.41,0.26-0.66,0.26c-0.25,0-0.47-0.09-0.66-0.26c-0.19-0.17-0.29-0.4-0.29-0.66c0-0.27,0.09-0.49,0.28-0.66
			C118.79,16.22,119.01,16.13,119.27,16.13z M120.04,18.87v5.46h-1.54v-5.46H120.04z"/>
		<path class="st0" d="M122.96,18.87l1.28,3.97h0.1l1.28-3.97h1.75l-2.31,5.48h-1.62l-2.3-5.48H122.96z"/>
		<path class="st0" d="M129.52,22.09c0.06,0.31,0.22,0.56,0.48,0.75c0.26,0.19,0.61,0.28,1.05,0.28c0.68,0,1.28-0.17,1.78-0.52
			l0.65,1.11c-0.7,0.5-1.54,0.74-2.52,0.74c-0.95,0-1.68-0.26-2.2-0.77c-0.52-0.51-0.78-1.21-0.78-2.08c0-0.4,0.07-0.77,0.21-1.12
			s0.34-0.65,0.6-0.91c0.25-0.26,0.57-0.46,0.94-0.61c0.37-0.15,0.78-0.22,1.23-0.22c0.78,0,1.41,0.24,1.9,0.72
			c0.49,0.48,0.73,1.11,0.73,1.89c0,0.23-0.03,0.48-0.09,0.75L129.52,22.09L129.52,22.09z M132.04,20.96
			c-0.02-0.29-0.12-0.51-0.3-0.67c-0.19-0.16-0.45-0.25-0.81-0.25c-0.71,0-1.16,0.31-1.36,0.92H132.04z"/>
		<path class="st0" d="M139.56,17.15l1.93,5.56h0.11l1.84-5.56h1.85l-2.85,7.2h-1.9l-2.85-7.2H139.56z"/>
		<path class="st0" d="M146.93,16.13c0.26,0,0.48,0.09,0.67,0.25c0.18,0.17,0.27,0.39,0.27,0.67c0,0.27-0.09,0.49-0.28,0.67
			c-0.19,0.17-0.41,0.26-0.66,0.26c-0.25,0-0.47-0.09-0.66-0.26c-0.19-0.17-0.29-0.4-0.29-0.66c0-0.27,0.09-0.49,0.28-0.66
			C146.46,16.22,146.68,16.13,146.93,16.13z M147.7,18.87v5.46h-1.54v-5.46H147.7z"/>
		<path class="st0" d="M153.28,20.46c-0.52-0.29-1.11-0.43-1.76-0.43c-0.62,0-0.93,0.14-0.93,0.43c0,0.21,0.16,0.33,0.49,0.37
			l1.04,0.12c0.65,0.08,1.14,0.26,1.48,0.52c0.33,0.26,0.5,0.65,0.5,1.16c0,0.57-0.24,1.02-0.71,1.34
			c-0.47,0.32-1.13,0.48-1.98,0.48c-0.49,0-0.93-0.05-1.33-0.15c-0.39-0.1-0.79-0.27-1.18-0.51l0.58-1.14
			c0.58,0.34,1.23,0.51,1.96,0.51c0.78,0,1.17-0.15,1.17-0.45c0-0.12-0.05-0.21-0.14-0.27c-0.09-0.06-0.24-0.1-0.45-0.12l-1.23-0.14
			c-1.14-0.13-1.7-0.68-1.7-1.66c0-0.55,0.21-0.99,0.64-1.31c0.43-0.32,1.03-0.48,1.81-0.48c0.91,0,1.69,0.19,2.34,0.58
			L153.28,20.46z"/>
		<path class="st0" d="M156.77,18.87v3.04c0,0.81,0.34,1.21,1.01,1.21c0.31,0,0.59-0.1,0.83-0.3c0.24-0.2,0.41-0.47,0.52-0.82v-3.14
			h1.53v5.46h-1.22l-0.1-0.88c-0.16,0.32-0.4,0.57-0.71,0.75c-0.31,0.17-0.66,0.26-1.07,0.26c-0.74,0-1.31-0.21-1.72-0.62
			c-0.4-0.41-0.6-1.01-0.6-1.8v-3.17H156.77z"/>
		<path class="st0" d="M162.07,19.38c0.71-0.43,1.51-0.64,2.38-0.64c0.85,0,1.48,0.21,1.89,0.62c0.41,0.41,0.62,0.98,0.62,1.71v1.65
			c0,0.29,0.11,0.43,0.32,0.43c0.08,0,0.14-0.01,0.18-0.03l0.14,1.21c-0.22,0.08-0.46,0.12-0.71,0.12c-0.66,0-1.05-0.28-1.16-0.85
			c-0.4,0.57-1.02,0.86-1.88,0.86c-0.65,0-1.16-0.16-1.52-0.47c-0.37-0.32-0.55-0.77-0.55-1.35c0-0.57,0.23-1.01,0.69-1.32
			c0.46-0.31,1.08-0.46,1.86-0.46c0.35,0,0.73,0.05,1.12,0.15v-0.17c0-0.5-0.34-0.75-1-0.75c-0.6,0-1.19,0.14-1.77,0.41
			L162.07,19.38z M165.45,22.07c-0.36-0.08-0.72-0.12-1.09-0.12c-0.68,0-1.02,0.2-1.02,0.61c0,0.39,0.26,0.58,0.78,0.58
			c0.41,0,0.74-0.09,0.98-0.27c0.24-0.18,0.36-0.41,0.36-0.67L165.45,22.07L165.45,22.07z"/>
		<path class="st0" d="M170.21,16.75v7.57h-1.53v-7.57H170.21z"/>
		<path class="st0" d="M175.78,20.46c-0.52-0.29-1.11-0.43-1.76-0.43c-0.62,0-0.93,0.14-0.93,0.43c0,0.21,0.16,0.33,0.49,0.37
			l1.04,0.12c0.65,0.08,1.14,0.26,1.48,0.52c0.33,0.26,0.5,0.65,0.5,1.16c0,0.57-0.24,1.02-0.71,1.34
			c-0.47,0.32-1.13,0.48-1.98,0.48c-0.49,0-0.93-0.05-1.33-0.15c-0.39-0.1-0.79-0.27-1.18-0.51l0.58-1.14
			c0.58,0.34,1.23,0.51,1.96,0.51c0.78,0,1.17-0.15,1.17-0.45c0-0.12-0.05-0.21-0.14-0.27c-0.09-0.06-0.24-0.1-0.45-0.12l-1.23-0.14
			c-1.14-0.13-1.7-0.68-1.7-1.66c0-0.55,0.21-0.99,0.64-1.31c0.43-0.32,1.03-0.48,1.81-0.48c0.91,0,1.69,0.19,2.34,0.58
			L175.78,20.46z"/>
	</g>
</g>
</svg>
