<?xml version="1.0" encoding="utf-8"?>
<!-- Generator: Adobe Illustrator 26.1.0, SVG Export Plug-In . SVG Version: 6.00 Build 0)  -->
<svg version="1.1" id="Layer_1" xmlns="http://www.w3.org/2000/svg" xmlns:xlink="http://www.w3.org/1999/xlink" x="0px" y="0px"
	 viewBox="0 0 154.27 44.29" style="enable-background:new 0 0 154.27 44.29;" xml:space="preserve">
<style type="text/css">
	.st0{fill:#FFFFFF;}
</style>
<g>
	<path class="st0" d="M97.25,41.55c-0.02-0.22-0.05-0.45-0.05-0.67c0-8.92,0-17.83,0-26.75c0-0.22,0-0.44,0-0.73
		c1.62,0,3.18,0,4.84,0c0,0.65,0,1.31,0,1.98c0.15-0.02,0.22-0.01,0.24-0.04c2.3-3.56,8.31-3.21,11.05,0.2
		c1.65,2.05,2.23,4.45,2.33,7c0.08,2.23-0.25,4.38-1.26,6.41c-2.44,4.95-9.09,5.28-11.89,1.51c-0.06-0.08-0.1-0.17-0.29-0.19
		c-0.02,0.13-0.06,0.27-0.06,0.4c0,3.51,0,7.01,0,10.52c0,0.12,0.03,0.25,0.05,0.37C100.55,41.55,98.9,41.55,97.25,41.55z
		 M110.69,22.99c-0.25-1.14-0.37-2.25-0.74-3.26c-0.62-1.67-1.85-2.73-3.71-2.78c-1.62-0.04-3.11,1.06-3.76,2.84
		c-0.83,2.26-0.68,4.54,0.24,6.73c0.64,1.52,1.92,2.16,3.55,2.14c1.64-0.02,2.98-0.62,3.59-2.2
		C110.26,25.35,110.41,24.15,110.69,22.99z"/>
	<path class="st0" d="M153.99,24.26c-4.35,0-8.69,0-13.14,0c0.1,1.71,0.58,3.2,2.08,4.11c1.47,0.89,3.01,0.83,4.48-0.07
		c0.31-0.19,0.64-0.47,0.77-0.79c0.25-0.61,0.65-0.7,1.23-0.68c1.39,0.03,2.79,0.01,4.3,0.01c-0.77,2.51-2.19,4.38-4.54,5.36
		c-2.95,1.23-5.92,1.06-8.81-0.23c-2.04-0.91-3.26-2.6-3.91-4.7c-0.75-2.44-0.88-4.93-0.38-7.43c0.85-4.25,3.99-6.89,8.36-6.98
		c1.18-0.03,2.42,0.08,3.55,0.39c3.27,0.89,4.82,3.36,5.55,6.48c0.21,0.9,0.32,1.82,0.48,2.72
		C153.99,23.06,153.99,23.66,153.99,24.26z M148.75,21.02c-0.07-1.61-0.58-2.89-1.95-3.66c-1.29-0.73-2.65-0.75-3.92,0.07
		c-1.27,0.82-1.78,2.07-1.88,3.59C143.61,21.02,146.13,21.02,148.75,21.02z"/>
	<path class="st0" d="M0.28,16.29c0.05-0.69,0.11-1.38,0.16-2.1c3.63-0.61,5.85-2.6,6.18-6.44c2.02,0,4.01,0,6,0
		c0.79,4.34-3.52,12.53-12.34,12.6C0.28,19,0.28,17.64,0.28,16.29z"/>
	<path class="st0" d="M76.59,32.45c-1.65,0-3.26,0-4.97,0c-0.01-0.28-0.04-0.54-0.04-0.81c0-3.61,0-7.21,0-10.82c0-0.2,0-0.4,0-0.6
		c-0.02-1.82-0.59-2.82-1.82-3.2c-1.72-0.54-3.48-0.01-4.43,1.34c-0.69,0.98-0.92,2.1-0.92,3.27c0,3.31,0,6.61,0,9.92
		c0,0.27,0,0.55,0,0.88c-1.69,0-3.32,0-5,0c0-8.69,0-17.34,0-26.04c1.66,0,3.27,0,4.99,0c0,3.02,0,6.02,0,9.16
		c2.47-2.86,5.42-3.31,8.66-2.15c2.24,0.8,3.51,2.58,3.56,4.92c0.11,4.63,0.03,9.27,0.03,13.9C76.66,32.27,76.63,32.32,76.59,32.45z
		"/>
	<path class="st0" d="M39.09,24.26c-4.57,0-8.89,0-13.21,0c-0.02,3.44,2.92,5.63,5.84,4.37c0.62-0.27,1.07-0.91,1.61-1.37
		c0.17-0.15,0.35-0.4,0.53-0.4c1.57-0.03,3.14-0.02,4.81-0.02c-0.5,1.78-1.38,3.19-2.74,4.29c-2.13,1.72-4.62,2.09-7.23,1.77
		c-4.82-0.58-7.43-3.38-7.82-8.44c-0.11-1.39-0.09-2.82,0.12-4.19c0.67-4.46,3.78-7.24,8.29-7.4c1.23-0.04,2.52,0.07,3.7,0.4
		c3.27,0.89,4.84,3.38,5.51,6.5C38.82,21.19,38.89,22.67,39.09,24.26z M33.69,21c0.17-2.24-1.5-4.09-3.72-4.15
		c-2.18-0.06-3.96,1.79-3.92,4.15C28.59,21,31.11,21,33.69,21z"/>
	<path class="st0" d="M78.22,26.38c1.76,0,3.43,0,5.17,0c0.11,1.24,0.77,2.1,1.95,2.47c1.55,0.49,3.12,0.56,4.59-0.26
		c1.13-0.63,1.14-2.11,0.01-2.76c-0.68-0.39-1.48-0.58-2.24-0.82c-1.81-0.57-3.67-1-5.42-1.71c-2.02-0.81-3.31-2.3-3.33-4.63
		c-0.03-2.55,1.14-4.34,3.55-5.16c2.93-0.99,5.91-1,8.84-0.02c2.43,0.82,3.94,3.11,3.8,5.58c-1.56,0-3.12,0-4.74,0
		c-0.2-0.98-0.58-1.88-1.64-2.2c-1.38-0.41-2.78-0.46-4.11,0.11c-0.97,0.41-1.12,1.63-0.29,2.27c0.46,0.36,1.03,0.62,1.6,0.79
		c1.72,0.52,3.46,0.98,5.2,1.46c0.34,0.09,0.67,0.21,1,0.32c1.99,0.65,3.4,1.83,3.6,4.05c0.21,2.36-0.45,4.37-2.53,5.72
		c-1.2,0.78-2.55,1.14-3.96,1.28c-2.57,0.25-5.11,0.12-7.47-1.08C79.59,30.7,78.36,28.94,78.22,26.38z"/>
	<path class="st0" d="M57.93,20.14c-1.71,0-3.35,0-5.03,0c-0.06-0.19-0.12-0.37-0.18-0.56c-0.51-1.59-1.68-2.49-3.33-2.54
		c-1.69-0.05-2.94,0.71-3.49,2.29c-0.83,2.36-0.75,4.73,0.16,7.05c0.64,1.63,1.87,2.45,3.3,2.36c1.81-0.11,2.9-1.02,3.41-2.84
		c0.03-0.09,0.06-0.18,0.09-0.3c1.65,0,3.3,0,5.01,0c-0.38,2.66-1.63,4.68-3.88,6.06c-3.49,2.14-8.4,1.64-11.04-1.1
		c-1.24-1.28-1.92-2.86-2.28-4.58c-0.45-2.18-0.45-4.38-0.01-6.56c0.75-3.7,3.15-5.95,6.93-6.48c2.21-0.31,4.35-0.11,6.35,0.94
		C56.44,15.19,57.68,17.32,57.93,20.14z"/>
	<path class="st0" d="M6.63,20.34c2.04,0,4.03,0,6.11,0c0-2.08,0-4.09,0-6.15c2.17,0,4.25,0,6.39,0c0,2.04,0,4.05,0,6.14
		c-2.04,0-4.06,0-6.15,0c-0.1,1.82,0.51,3.29,1.71,4.52c1.2,1.24,2.69,1.86,4.45,1.91c0,2.09,0,4.1,0,6.11
		C13.09,33.51,6.37,27.46,6.63,20.34z"/>
	<path class="st0" d="M129.97,32.44c-1.72,0-3.34,0-5.01,0c-0.02-0.28-0.04-0.52-0.04-0.77c0-5.84,0.01-11.67-0.02-17.51
		c0-0.64,0.13-0.89,0.82-0.85c1.27,0.06,2.54,0.02,3.89,0.02c0,0.7,0,1.34,0,1.98c0.05,0.05,0.09,0.1,0.14,0.15
		c1.49-2.27,3.66-2.81,6.18-2.59c0,1.69,0,3.35,0,5.02c-0.6,0-1.17-0.02-1.73,0c-2.77,0.13-4.21,1.62-4.22,4.4
		c-0.02,3.08,0,6.16,0,9.24C129.97,31.82,129.97,32.09,129.97,32.44z"/>
	<path class="st0" d="M117.63,13.38c1.68,0,3.3,0,4.95,0c0,6.37,0,12.69,0,19.06c-1.66,0-3.27,0-4.95,0
		C117.63,26.1,117.63,19.77,117.63,13.38z"/>
	<path class="st0" d="M120.79,3.79c0.01,0.2,0.01,0.4,0.03,0.6c0.14,1.19,0.79,1.73,1.96,1.45c2.64-0.65,5.27-1.38,7.9-2.08
		c1.35-0.36,2.69-0.75,4.08-1.01c-0.66,0.26-1.33,0.5-1.99,0.77c-3,1.24-6,2.48-9,3.74c-0.5,0.21-0.98,0.5-1.46,0.77
		c-1.42,0.82-2.17,2.1-2.53,3.71c-0.05-0.24-0.1-0.48-0.15-0.72c-0.06-0.27-0.1-0.54-0.19-0.8c-0.38-1.12-0.87-1.43-2.03-1.25
		c-0.48,0.08-0.96,0.17-1.48,0.19c2.34-1.15,4.35-2.57,4.7-5.46C120.67,3.73,120.73,3.76,120.79,3.79z"/>
</g>
</svg>
