<?xml version="1.0" encoding="utf-8"?>
<!-- Generator: Adobe Illustrator 26.1.0, SVG Export Plug-In . SVG Version: 6.00 Build 0)  -->
<svg version="1.1" id="Layer_1" xmlns="http://www.w3.org/2000/svg" xmlns:xlink="http://www.w3.org/1999/xlink" x="0px" y="0px"
	 viewBox="0 0 189.05 34" style="enable-background:new 0 0 189.05 34;" xml:space="preserve">
<style type="text/css">
	.st0{fill:#FFFFFF;}
</style>
<g>
	<path class="st0" d="M22.35,5.73l0.01,22.22l-21.9-0.08L0.36,5.49l10.91,8.45c0.31-2.72,0.24-5.25,0.31-8.08L22.35,5.73z"/>
	<path class="st0" d="M50.94,18.85C50.9,24.92,45.33,29,39.8,28.67c-5.83-0.35-9.95-5.21-9.9-11.12l0.09-11.07h21.02L50.94,18.85z"
		/>
	<polygon class="st0" points="78.06,16.99 78.08,27.96 60.89,27.96 60.89,5.95 71.93,5.95 71.97,16.95 	"/>
	<polygon class="st0" points="107.22,16.99 107.2,27.98 90.08,27.95 90.08,5.95 100.96,5.95 101,16.95 	"/>
	<path class="st0" d="M170.9,24.68c-1.34,1.94-3.22,2.94-5.13,3.06c-2.22,0.13-4.07-0.62-5.61-2.29l-0.2,1.79l-2.64-0.11V5.4
		l2.78-0.07l0.01,8.84c1.58-1.75,3.41-2.55,5.69-2.41c1.99,0.13,3.96,1.28,5.21,3.22C172.87,17.84,172.93,21.76,170.9,24.68z
		 M166.59,24.76c2.17-1.05,3.03-3.15,2.96-5.25c-0.07-1.9-1.02-3.87-2.98-4.76c-1.67-0.77-3.57-0.39-4.85,0.78
		c-2.38,2.17-2.25,6.7,0.21,8.65C163.18,25.17,164.96,25.55,166.59,24.76z"/>
	<path class="st0" d="M148.06,25.52c-1.71,2.33-4.72,2.84-7.39,1.59c-1.97-0.92-3.1-2.9-2.91-4.98c0.44-4.88,6.68-5.26,10.58-3.93
		c0.16-2.11-1.34-3.4-2.91-3.76c-1.85-0.44-3.45,0.31-4.74,1.83l-2.41-1.55c1.66-2.54,4.46-3.19,7.31-2.88
		c3.14,0.33,5.49,2.63,5.49,5.86l0.01,9.47l-2.58,0.09L148.06,25.52z M148.36,20.84c-2.01-1.28-4.25-1.38-6.18-0.41
		c-0.93,0.48-1.62,1.61-1.47,2.58c0.11,0.73,1,1.73,1.87,2.01C145.32,25.88,148.15,23.83,148.36,20.84z"/>
	<path class="st0" d="M189.05,27.22h-11.97l-0.05-2.5l8.27-9.73l-8.09-0.2l0.01-2.51l11.61,0.01c0.13,0.54,0.37,2.14-0.03,2.62
		l-8.21,9.67l8.41,0.12L189.05,27.22z"/>
	<polygon class="st0" points="133.11,24.56 133.09,27.22 120.86,27.21 120.87,5.35 123.63,5.31 123.65,24.55 	"/>
</g>
</svg>
