<?xml version="1.0" encoding="utf-8"?>
<!-- Generator: Adobe Illustrator 16.0.0, SVG Export Plug-In . SVG Version: 6.00 Build 0)  -->
<!DOCTYPE svg PUBLIC "-//W3C//DTD SVG 1.1//EN" "http://www.w3.org/Graphics/SVG/1.1/DTD/svg11.dtd">
<svg version="1.1" id="Layer_1" xmlns="http://www.w3.org/2000/svg" xmlns:xlink="http://www.w3.org/1999/xlink" x="0px" y="0px"
	 width="262.247px" height="38.333px" viewBox="27.199 0 262.247 38.333" enable-background="new 27.199 0 262.247 38.333"
	 xml:space="preserve">
<g>
	<g>
		<polygon fill="#231F20" points="211.342,33.771 194.164,33.771 194.164,3.167 198.097,3.167 198.097,30.006 211.342,30.006 		"/>
		<path fill="#231F20" d="M226.978,12.15c2.907,0,5.198,0.773,6.883,2.33c1.678,1.549,2.518,3.682,2.518,6.377v12.914h-3.76v-2.899
			h-0.166c-1.625,2.387-3.789,3.578-6.498,3.578c-2.311,0-4.238-0.679-5.787-2.056c-1.551-1.362-2.338-3.065-2.338-5.123
			c0-2.164,0.826-3.894,2.465-5.166c1.633-1.28,3.822-1.929,6.557-1.929c2.336,0,4.265,0.431,5.769,1.281v-0.896
			c0-1.363-0.537-2.523-1.619-3.482c-1.103-0.967-2.565-1.467-4.033-1.422c-2.088,0.051-3.745,0.986-4.987,2.772l-3.457-2.182
			C220.429,13.513,223.244,12.15,226.978,12.15 M221.896,27.361c0,1.024,0.436,1.877,1.299,2.556
			c0.871,0.686,1.889,1.024,3.061,1.024c1.652,0,3.125-0.614,4.418-1.832c1.299-1.229,1.945-2.655,1.945-4.321l0,0
			c-1.229-0.959-2.938-1.445-5.127-1.445c-1.596,0-2.926,0.377-3.996,1.152C222.426,25.262,221.896,26.223,221.896,27.361"/>
		<path fill="#231F20" d="M256.166,34.45c-1.543,0-2.944-0.326-4.213-0.986c-1.269-0.652-2.246-1.519-2.927-2.592h-0.172v2.899
			h-3.76V3.167h3.932v9.661l-0.172,2.907h0.172c0.681-1.082,1.658-1.96,2.927-2.6c1.269-0.659,2.67-0.985,4.213-0.985
			c2.754,0,5.099,1.082,7.006,3.246c1.959,2.196,2.945,4.827,2.945,7.901c0,3.098-0.986,5.742-2.945,7.906
			C261.265,33.368,258.92,34.45,256.166,34.45 M255.521,30.872c1.877,0,3.465-0.726,4.744-2.146c1.28-1.4,1.922-3.201,1.922-5.428
			c0-2.189-0.642-4.002-1.922-5.424c-1.279-1.428-2.867-2.138-4.744-2.138c-1.908,0-3.502,0.71-4.781,2.138
			c-1.256,1.422-1.883,3.234-1.883,5.424c0,2.227,0.627,4.053,1.883,5.473C252.019,30.167,253.61,30.872,255.521,30.872"/>
		<polygon fill="#231F20" points="289.446,33.771 272.524,33.771 272.524,30.352 284.446,16.419 272.871,16.419 272.871,12.828 
			289.272,12.828 289.272,16.248 277.354,30.18 289.446,30.18 		"/>
	</g>
	<g>
		<path fill="#231F20" d="M97.615,21.754c0.037-0.43,0.063-0.859,0.063-1.308c0-0.44-0.025-0.877-0.063-1.307v-15H68.303v15
			c-0.037,0.43-0.063,0.864-0.063,1.307c0,0.447,0.025,0.878,0.063,1.308v0.242h0.02c0.775,7.401,7.031,13.17,14.637,13.17
			s13.867-5.769,14.637-13.17h0.02v-0.242H97.615z"/>
		<polygon fill="#231F20" points="126.848,18.84 126.848,3.474 111.559,3.474 111.559,34.213 119.965,34.213 126.848,34.213 
			135.484,34.213 135.484,18.84 		"/>
		<polygon fill="#231F20" points="167.459,18.809 167.459,3.435 152.17,3.435 152.17,34.18 160.582,34.18 167.459,34.18 
			176.097,34.18 176.097,18.809 		"/>
		<polygon fill="#231F20" points="27.199,34.084 27.199,4.14 42.488,14.96 42.488,4.14 57.656,4.14 57.656,34.2 57.119,34.2 		"/>
	</g>
</g>
</svg>
